Coordinates
version=1
nRows=5
nColumns=40
inDegrees=yes

Units are S.I. units (second, meters, Newtons, ...)
Angles are in degrees.

endheader
time	pelvis_tilt	pelvis_list	pelvis_rotation	pelvis_tx	pelvis_ty	pelvis_tz	hip_flexion_r	hip_adduction_r	hip_rotation_r	knee_angle_r	knee_angle_r_beta	ankle_angle_r	subtalar_angle_r	mtp_angle_r	hip_flexion_l	hip_adduction_l	hip_rotation_l	knee_angle_l	knee_angle_l_beta	ankle_angle_l	subtalar_angle_l	mtp_angle_l	lumbar_extension	lumbar_bending	lumbar_rotation	arm_flex_r	arm_add_r	arm_rot_r	elbow_flex_r	pro_sup_r	wrist_flex_r	wrist_dev_r	arm_flex_l	arm_add_l	arm_rot_l	elbow_flex_l	pro_sup_l	wrist_flex_l	wrist_dev_l
      0.00000000	     -2.41079793	      4.57502052	     -6.12576314	     -1.41802756	      0.94860547	      1.34173368	     18.63262253	    -17.78551729	    -18.27239760	    -47.19311686	     -0.82367527	      1.70710539	    -15.09002534	      5.51005258	      7.12182637	     -7.94370557	     13.62040364	    -12.57009787	     -0.21938960	      4.94600821	      7.38132599	     -4.04023641	     -4.42386166	     -6.01457681	      2.10850632	     10.15971853	    -11.37812988	     -4.55079752	     27.92646970	     89.95437384	      0.00000000	      0.00000000	      7.57145512	     10.89342042	      2.45797246	     21.48356574	     89.95437384	      0.00000000	      0.00000000
      0.01000000	     -2.56664815	      4.46686961	     -5.64338185	     -1.41371746	      0.94832154	      1.34103855	     19.51362746	    -17.60496617	    -17.96874587	    -46.22935631	     -0.80685448	      2.06507450	    -14.79095721	      5.60231490	      6.98985505	     -7.86640089	     13.42597970	    -12.59222091	     -0.21977571	      5.10631865	      7.08189926	     -4.07592982	     -4.39548417	     -5.82858661	      1.67905963	     10.05454160	    -11.42559148	     -4.51978631	     27.87861627	     89.95437384	      0.00000000	      0.00000000	      8.25990105	     10.93098187	      2.19464323	     22.13774713	     89.95437384	      0.00000000	      0.00000000
      0.02000000	     -2.72748365	      4.36355110	     -5.19291883	     -1.40905948	      0.94804205	      1.34055348	     20.33984744	    -17.36934350	    -17.58924201	    -45.15376315	     -0.78808184	      2.30884767	    -14.39702768	      5.63982155	      6.83970731	     -7.79203755	     13.25360384	    -12.62929023	     -0.22042270	      5.26917592	      6.82872196	     -4.09959487	     -4.32751761	     -5.66698948	      1.28241214	      9.86636577	    -11.44492279	     -4.59228078	     27.82353704	     89.95437384	      0.00000000	      0.00000000	      8.86049735	     10.99215506	      1.86866891	     22.88513570	     89.95437384	      0.00000000	      0.00000000
      0.03000000	     -2.82062190	      4.07220214	     -4.92237126	     -1.40501648	      0.94792113	      1.34048601	     21.11885783	    -16.76038021	    -16.89728971	    -43.89757997	     -0.76615730	      2.43324712	    -13.93896418	      5.90050236	      6.56948996	     -7.51965399	     12.78556630	    -12.54986583	     -0.21903648	      5.44519442	      6.56165767	     -4.18339098	     -4.41089598	     -5.30449383	      1.08197252	      9.89770944	    -11.42892084	     -4.96184944	     27.53834739	     89.95437384	      0.00000000	      0.00000000	      9.41187634	     11.18259507	      0.99095795	     23.84766131	     89.95437384	      0.00000000	      0.00000000
      0.04000000	     -2.65333482	      3.88500140	     -4.62173039	     -1.40030489	      0.94816525	      1.34058224	     21.51175839	    -16.38057192	    -16.50892707	    -42.61458743	     -0.74376486	      2.55597354	    -13.75126448	      6.57526729	      5.97016837	     -7.34564275	     12.72791826	    -12.41733294	     -0.21672334	      5.52976423	      6.30893560	     -4.39758225	     -4.72151078	     -5.11134752	      0.98847737	      9.71574494	    -11.33657126	     -5.84306183	     27.39102743	     89.95437384	      0.00000000	      0.00000000	     10.07734141	     11.40539150	     -0.26136039	     24.70600635	     89.95437384	      0.00000000	      0.00000000
